# xmcd
#
# Track frame offsets:
# 150
# 16014
# 34897
# 47495
# 61414
# 78899
# 100974
# 114323
# 130100
# 140138
# 154848
# 167004
#
# Disc length: 2356 seconds
#
#
# Revision: 0
# Processed by: cddbd v1.5.1PL0 Copyright (c) Steve Scherf et al.
# Submitted via: FreeRIP 2.943 
#
DISCID=9309320c
DTITLE=Cody Cantrell - On My Father's Side
DYEAR=2005
DGENRE=Gospel
TTITLE0=The Hem Of His Garment
TTITLE1=Holy Angels
TTITLE2=Medals For Mothers
TTITLE3=Painted Line
TTITLE4=He Took Your Place
TTITLE5=Heavenly Home
TTITLE6=Precious Memories
TTITLE7=On My Father's Side
TTITLE8=Good Morning Child
TTITLE9=Jesus Hold My Hand
TTITLE10=Altar Of Prayer
TTITLE11=Amazing Grace
EXTD=
EXTT0=
EXTT1=
EXTT2=
EXTT3=
EXTT4=
EXTT5=
EXTT6=
EXTT7=
EXTT8=
EXTT9=
EXTT10=
EXTT11=
PLAYORDER=
